<svg width="25" height="24" viewBox="0 0 25 24" fill="none" xmlns="http://www.w3.org/2000/svg">
<path d="M10.4981 2.01416C6.93705 2.01416 3.49805 5.41996 3.49805 8.98296C3.49805 8.99326 3.49805 9.00376 3.49805 9.01416C3.49805 11.4742 3.49805 14.4105 3.49805 14.6704C3.49805 16.5342 5.10906 18.0142 7.06006 18.0142H7.49805V18.6704C7.49805 20.5342 9.10907 22.0142 11.0601 22.0142H17.9361C19.8871 22.0142 21.4981 20.5342 21.4981 18.6704V9.35796C21.4981 7.49416 19.8871 6.01416 17.9361 6.01416H17.4981V5.35796C17.4981 3.49416 15.8871 2.01416 13.9361 2.01416C13.7221 2.01416 13.7121 2.01416 10.4981 2.01416ZM9.49806 4.26416V6.67036C9.49806 7.38396 8.82404 8.01416 7.93604 8.01416H5.71704C6.17605 6.24696 7.72605 4.73456 9.49806 4.26416ZM17.4981 8.01416H17.9361C18.8241 8.01416 19.4981 8.64436 19.4981 9.35796V18.6704C19.4981 19.384 18.8241 20.0142 17.9361 20.0142H11.0601C10.1721 20.0142 9.49806 19.384 9.49806 18.6704V18.0142H13.9361C15.8871 18.0142 17.4981 16.5342 17.4981 14.6704V8.01416Z" fill="#0C1232"/>
</svg>
