<svg width="48" height="48" viewBox="0 0 48 48" fill="none" xmlns="http://www.w3.org/2000/svg">
<path d="M11.9033 7.99561C7.83533 7.99561 4.65136 9.02359 4.08936 12.9336C3.90936 14.1856 4.30533 15.4176 5.21533 16.3076C5.66733 16.7496 6.14535 17.2756 6.77735 17.8076C8.36335 19.1456 10.3854 20.6496 12.2774 21.9956C17.4834 25.6956 21.5934 27.9956 24.0274 27.9956C26.4614 27.9956 30.5714 25.6956 35.7774 21.9956C37.6714 20.6496 39.6934 19.1436 41.2774 17.8076C41.9094 17.2756 42.3874 16.7516 42.8394 16.3076C43.7494 15.4176 44.1454 14.1856 43.9654 12.9336C43.4034 9.02359 40.2194 7.99561 36.1514 7.99561H11.9033ZM4.02734 20.3076V31.9956C4.02734 36.4136 7.60935 39.9956 12.0274 39.9956H36.0274C40.4454 39.9956 44.0274 36.4136 44.0274 31.9956V20.3076C42.3874 21.8656 40.5554 23.4736 37.9654 25.3076C32.2934 29.3236 27.1994 31.9956 24.0274 31.9956C20.8554 31.9956 15.7614 29.3236 10.0894 25.3076C7.49736 23.4736 5.66735 21.8656 4.02734 20.3076Z" fill="#1A1B1D"/>
</svg>
