<svg width="48" height="48" viewBox="0 0 48 48" fill="none" xmlns="http://www.w3.org/2000/svg">
<g clip-path="url(#clip0_1390_1352)">
<path fill-rule="evenodd" clip-rule="evenodd" d="M24.0013 1C18.3037 1.00296 12.793 3.02092 8.45447 6.69305C4.11595 10.3652 1.23254 15.452 0.319821 21.044C-0.592896 26.636 0.524586 32.3684 3.47247 37.2164C6.42036 42.0643 11.0064 45.7115 16.4106 47.5059C17.6028 47.7272 18.0519 46.9883 18.0519 46.36C18.0519 45.7317 18.0281 43.91 18.0201 41.9184C11.3435 43.3608 9.9327 39.101 9.9327 39.101C8.84378 36.3349 7.27001 35.6078 7.27001 35.6078C5.09216 34.1299 7.43296 34.1576 7.43296 34.1576C9.84528 34.3275 11.113 36.6194 11.113 36.6194C13.2511 40.2667 16.7285 39.2116 18.0956 38.5952C18.3102 37.0501 18.9342 35.999 19.6217 35.4023C14.2884 34.8017 8.68481 32.7548 8.68481 23.6108C8.65175 21.2394 9.53678 18.9461 11.1568 17.2054C10.9104 16.6047 10.0877 14.1785 11.3912 10.8829C11.3912 10.8829 13.4061 10.2427 17.9923 13.3289C21.9261 12.2592 26.0765 12.2592 30.0102 13.3289C34.5924 10.2427 36.6033 10.8829 36.6033 10.8829C37.9108 14.1706 37.0882 16.5968 36.8418 17.2054C38.4669 18.9464 39.3538 21.2437 39.3177 23.6187C39.3177 32.7824 33.7022 34.8017 28.3609 35.3905C29.2193 36.1333 29.9864 37.5836 29.9864 39.8122C29.9864 43.0051 29.9585 45.5736 29.9585 46.36C29.9585 46.9962 30.3917 47.7391 31.6078 47.5059C37.0126 45.7113 41.5991 42.0634 44.547 37.2147C47.4948 32.3659 48.6117 26.6326 47.6979 21.0401C46.7842 15.4476 43.8993 10.3607 39.5594 6.68921C35.2194 3.01771 29.7074 1.00108 24.0092 1H24.0013Z" fill="#1A1B1D"/>
<path d="M16.0566 39.9506C16.0566 40.1442 15.8341 40.3102 15.548 40.3141C15.2618 40.3181 15.0273 40.16 15.0273 39.9664C15.0273 39.7728 15.2499 39.6068 15.536 39.6029C15.8222 39.5989 16.0566 39.753 16.0566 39.9506Z" fill="#1A1B1D"/>
<path d="M17.8848 39.6463C17.9205 39.84 17.7218 40.0415 17.4357 40.0889C17.1495 40.1363 16.8992 40.0217 16.8634 39.8321C16.8276 39.6424 17.0343 39.4369 17.3125 39.3855C17.5907 39.3342 17.849 39.4527 17.8848 39.6463Z" fill="#1A1B1D"/>
<path d="M14.0923 39.8163C14.0327 40.002 13.7625 40.085 13.4922 40.006C13.222 39.9269 13.0432 39.7056 13.0948 39.516C13.1465 39.3263 13.4207 39.2394 13.6949 39.3263C13.9691 39.4132 14.144 39.6227 14.0923 39.8163Z" fill="#1A1B1D"/>
<path d="M12.2913 39.0417C12.1601 39.1879 11.8938 39.1484 11.6753 38.9509C11.4567 38.7533 11.405 38.4846 11.5362 38.3423C11.6673 38.2001 11.9336 38.2396 12.1601 38.4332C12.3866 38.6268 12.4304 38.8995 12.2913 39.0417V39.0417Z" fill="#1A1B1D"/>
<path d="M11.0078 37.7141C10.8607 37.8168 10.6103 37.7141 10.4712 37.5086C10.4328 37.4717 10.4022 37.4275 10.3813 37.3786C10.3604 37.3298 10.3496 37.2772 10.3496 37.2241C10.3496 37.171 10.3604 37.1184 10.3813 37.0695C10.4022 37.0206 10.4328 36.9764 10.4712 36.9396C10.6183 36.8408 10.8687 36.9396 11.0078 37.1411C11.1469 37.3426 11.1508 37.6113 11.0078 37.7141V37.7141Z" fill="#1A1B1D"/>
<path d="M10.0625 36.3428C9.98016 36.384 9.88599 36.3955 9.7961 36.3753C9.7062 36.3551 9.62616 36.3045 9.56967 36.2321C9.41467 36.0662 9.38286 35.837 9.50209 35.7342C9.62131 35.6315 9.83593 35.6789 9.99093 35.8449C10.1459 36.0108 10.1817 36.24 10.0625 36.3428Z" fill="#1A1B1D"/>
<path d="M9.08912 35.264C9.03745 35.3826 8.84669 35.4181 8.6917 35.3351C8.53671 35.2522 8.42147 35.098 8.4771 34.9755C8.53274 34.853 8.71953 34.8214 8.87452 34.9044C9.02951 34.9874 9.14873 35.1455 9.08912 35.264Z" fill="#1A1B1D"/>
</g>
<defs>
<clipPath id="clip0_1390_1352">
<rect width="48" height="48" rx="12" fill="white"/>
</clipPath>
</defs>
</svg>
