<svg width="48" height="48" viewBox="0 0 48 48" fill="none" xmlns="http://www.w3.org/2000/svg">
<path d="M47.9991 23.6554C47.9991 30.0141 46.9334 35.1719 45.6184 35.1719C44.3035 35.1719 43.2383 30.0154 43.2383 23.6554C43.2383 17.2954 44.3039 12.1389 45.6184 12.1389C46.9329 12.1389 47.9991 17.2949 47.9991 23.6554Z" fill="#1A1B1D"/>
<path d="M41.9264 23.6553C41.9264 30.7539 38.8959 36.5108 35.1575 36.5108C31.4192 36.5108 28.3887 30.7539 28.3887 23.6553C28.3887 16.5567 31.4187 10.7998 35.1571 10.7998C38.8954 10.7998 41.9259 16.5548 41.9259 23.6553" fill="#1A1B1D"/>
<path d="M27.0749 23.6554C27.0749 31.1968 21.0139 37.3103 13.5377 37.3103C6.06146 37.3103 0 31.1955 0 23.6554C0 16.1153 6.061 10 13.5377 10C21.0143 10 27.0749 16.114 27.0749 23.6554Z" fill="#1A1B1D"/>
</svg>
